<?xml version="1.0" standalone="no"?>
<!DOCTYPE svg PUBLIC "-//W3C//DTD SVG 20010904//EN"
 "http://www.w3.org/TR/2001/REC-SVG-20010904/DTD/svg10.dtd">
<svg version="1.0" xmlns="http://www.w3.org/2000/svg"
 width="453.000000pt" height="1536.000000pt" viewBox="0 0 453.000000 1536.000000"
 preserveAspectRatio="xMidYMid meet">
<metadata>
Created by potrace 1.16, written by Peter Selinger 2001-2019
</metadata>
<g transform="translate(0.000000,1536.000000) scale(0.100000,-0.100000)"
fill="#000000" stroke="none">
<path d="M2194 15350 c-33 -7 -66 -25 -200 -106 -45 -27 -95 -56 -110 -65 -34
-18 -109 -149 -178 -307 -24 -56 -76 -154 -115 -217 -91 -145 -97 -159 -111
-280 -20 -169 -54 -317 -160 -705 -108 -392 -120 -508 -121 -1199 0 -268 -4
-528 -7 -579 -8 -108 15 -82 -207 -239 -277 -195 -574 -432 -705 -562 -130
-129 -244 -308 -270 -424 -13 -55 -12 -57 14 -92 38 -49 112 -101 165 -116 34
-10 54 -10 90 0 58 15 274 119 411 198 200 115 403 203 468 203 26 0 29 -23
37 -265 20 -635 183 -2134 316 -2914 84 -492 82 -480 70 -520 -6 -20 -36 -79
-67 -131 -80 -133 -139 -263 -190 -415 -75 -226 -94 -375 -54 -415 11 -11 24
-20 29 -20 34 0 252 44 330 66 76 22 95 24 101 13 23 -36 61 -316 125 -919 62
-582 97 -811 260 -1715 96 -536 105 -595 105 -703 0 -142 -17 -238 -53 -307
-97 -184 -92 -168 -89 -303 2 -100 -1 -127 -14 -147 -22 -33 -15 -74 27 -161
l33 -67 -13 -121 c-7 -67 -15 -166 -18 -221 -5 -91 -3 -102 16 -127 25 -32
122 -70 165 -66 25 2 35 11 51 45 28 57 39 67 69 59 52 -13 57 -36 72 -308 7
-139 18 -302 24 -363 14 -148 68 -570 86 -672 15 -87 40 -163 54 -163 36 0 42
151 25 605 -54 1493 -56 1781 -9 2210 46 427 130 815 193 888 15 17 34 48 41
67 16 45 24 352 13 569 -4 90 -5 219 -1 285 9 161 47 586 58 661 5 33 16 213
25 400 17 389 35 687 41 697 2 3 30 -7 62 -23 97 -49 341 -109 444 -109 61 0
88 33 88 107 0 120 -48 323 -117 503 -57 146 -201 424 -291 561 l-81 124 -13
1240 c-17 1640 -17 1681 11 1880 13 88 26 166 30 172 4 8 48 -26 126 -98 265
-247 444 -378 684 -499 135 -68 224 -90 369 -90 l115 0 45 45 c44 45 45 46 39
98 -3 28 -28 125 -55 214 -52 171 -59 184 -162 303 -31 36 -103 126 -160 200
-172 224 -636 677 -827 808 -32 22 -74 55 -95 73 l-36 34 10 515 c10 549 5
1045 -12 1173 -6 43 -25 131 -42 195 -63 239 -68 272 -77 467 -5 105 -15 210
-22 234 -7 24 -32 65 -57 92 -36 40 -50 68 -82 169 -47 144 -149 349 -199 399
-42 42 -225 153 -290 176 -46 16 -171 19 -227 5z"/>
</g>
</svg>
