<?xml version="1.0" standalone="no"?>
<!DOCTYPE svg PUBLIC "-//W3C//DTD SVG 20010904//EN"
 "http://www.w3.org/TR/2001/REC-SVG-20010904/DTD/svg10.dtd">
<svg version="1.0" xmlns="http://www.w3.org/2000/svg"
 width="1085.000000pt" height="1536.000000pt" viewBox="0 0 1085.000000 1536.000000"
 preserveAspectRatio="xMidYMid meet">
<metadata>
Created by potrace 1.16, written by Peter Selinger 2001-2019
</metadata>
<g transform="translate(0.000000,1536.000000) scale(0.100000,-0.100000)"
fill="#000000" stroke="none">
<path d="M8165 15342 c-113 -71 -221 -268 -435 -792 -62 -151 -168 -408 -235
-570 -68 -163 -191 -466 -273 -675 -82 -209 -180 -450 -217 -535 -37 -85 -72
-167 -78 -181 -7 -19 -134 -101 -514 -333 l-503 -307 -54 25 c-100 47 -210 59
-272 30 -54 -26 -116 -103 -210 -261 -100 -168 -140 -214 -414 -467 -379 -352
-662 -598 -1060 -921 -327 -266 -615 -507 -900 -754 -129 -112 -262 -224 -295
-248 -69 -52 -77 -52 -182 -1 -115 56 -194 140 -389 417 -78 111 -195 230
-266 270 l-58 32 -67 -48 c-80 -56 -283 -256 -369 -363 -298 -368 -515 -833
-719 -1540 -91 -314 -124 -454 -150 -635 -21 -148 -29 -234 -49 -560 -2 -33
-24 -152 -49 -265 -25 -113 -68 -313 -97 -445 -29 -132 -79 -332 -111 -445
-32 -113 -69 -253 -83 -310 -131 -560 -151 -1231 -51 -1735 112 -563 397
-1087 772 -1418 478 -423 1068 -670 1913 -801 331 -51 434 -59 830 -62 l375
-2 12 -34 c32 -88 7 -121 -209 -275 -192 -137 -307 -254 -366 -374 -82 -167
-126 -346 -144 -591 -6 -87 -9 -160 -6 -164 21 -20 397 107 598 202 512 244
1088 691 1402 1089 118 150 178 204 282 255 127 62 144 66 641 122 245 28 284
27 360 -2 151 -58 627 -29 1128 71 184 36 418 95 842 210 405 110 551 158 635
209 176 105 720 587 1007 893 69 73 95 111 129 182 49 104 84 230 84 305 0 56
-22 115 -47 124 -9 4 -47 -21 -101 -68 -48 -40 -121 -95 -162 -123 -224 -149
-566 -303 -818 -368 -151 -40 -350 -53 -368 -24 -16 26 414 393 640 547 101
69 140 85 260 111 251 55 401 146 422 258 8 42 -17 112 -57 158 -78 88 -358
179 -1062 345 -939 222 -1451 320 -2417 465 -168 25 -512 79 -765 120 -483 78
-700 109 -826 120 -42 4 -82 11 -89 15 -15 9 14 107 122 420 62 181 284 780
291 785 1 2 91 8 199 14 367 21 654 91 908 222 98 51 190 123 190 150 0 31
-51 99 -142 189 -92 92 -188 158 -368 256 l-125 68 -190 -23 c-104 -13 -225
-29 -267 -35 -43 -7 -78 -10 -78 -7 0 12 119 331 185 496 254 632 586 1262
759 1439 38 39 65 58 97 66 57 16 351 8 584 -15 209 -20 652 -24 773 -6 124
18 246 55 347 106 97 49 183 107 191 130 3 8 -23 61 -59 118 -184 293 -273
552 -323 932 -23 184 -21 179 -97 172 -81 -8 -255 -65 -386 -127 -57 -28 -106
-48 -108 -46 -10 10 339 453 570 724 l127 149 188 41 c210 47 427 85 772 137
457 69 567 87 730 116 604 108 887 219 972 383 49 95 32 204 -63 394 -80 161
-204 344 -540 802 -312 425 -396 543 -565 789 -173 252 -344 460 -554 675
-302 308 -470 443 -685 552 -148 75 -201 87 -250 56z"/>
</g>
</svg>
