<?xml version="1.0" standalone="no"?>
<!DOCTYPE svg PUBLIC "-//W3C//DTD SVG 20010904//EN"
 "http://www.w3.org/TR/2001/REC-SVG-20010904/DTD/svg10.dtd">
<svg version="1.0" xmlns="http://www.w3.org/2000/svg"
 width="4895.000000pt" height="1783.000000pt" viewBox="0 0 4895.000000 1783.000000"
 preserveAspectRatio="xMidYMid meet">
<metadata>
Created by potrace 1.16, written by Peter Selinger 2001-2019
</metadata>
<g transform="translate(0.000000,1783.000000) scale(0.100000,-0.100000)"
fill="#000000" stroke="none">
<path d="M45503 17819 c-34 -4 -152 -35 -262 -68 l-201 -60 -362 -244 c-200
-134 -608 -408 -908 -609 -729 -487 -938 -637 -1045 -749 -52 -54 -274 -231
-497 -397 -175 -130 -535 -424 -656 -536 -34 -32 -100 -108 -146 -170 -46 -61
-133 -167 -193 -236 -94 -108 -137 -147 -319 -286 -435 -334 -943 -710 -1049
-776 -22 -13 -128 -64 -235 -112 -255 -115 -502 -241 -528 -269 -11 -12 -34
-57 -52 -99 -17 -43 -41 -92 -53 -109 -43 -63 -210 -135 -382 -164 -49 -8
-304 -37 -565 -65 -261 -28 -531 -59 -600 -70 -106 -16 -320 -38 -515 -53 -49
-4 -1377 23 -1383 28 -1 1 4 15 12 31 22 44 34 169 20 203 -17 40 -50 48 -239
61 -331 22 -347 25 -579 101 -118 38 -241 75 -273 81 -35 8 -149 12 -288 12
l-230 1 -350 -98 c-374 -104 -424 -114 -925 -177 -266 -34 -371 -40 -1050 -65
-422 -16 -577 -16 -2155 -3 l-1700 15 -96 52 -97 53 -28 72 c-52 132 -199 247
-400 311 -131 42 -269 109 -414 203 -81 52 -113 66 -219 95 l-124 34 103 54
c124 65 180 113 180 155 0 38 -22 120 -43 160 -31 61 -110 111 -241 154 -81
27 -110 51 -127 110 -26 85 -139 183 -306 263 -99 47 -178 120 -188 174 -8 42
-92 134 -201 219 -111 87 -109 84 -89 138 21 56 15 85 -29 134 -37 41 -179
119 -266 147 -75 24 -135 55 -228 119 -116 78 -438 237 -495 243 -34 4 -47 10
-47 21 0 31 -46 63 -149 103 -58 22 -155 60 -216 84 -196 79 -315 93 -401 48
-43 -22 -393 -203 -516 -266 l-77 -40 -173 -8 c-364 -16 -458 -51 -864 -325
-248 -166 -311 -213 -490 -370 -207 -180 -346 -290 -402 -318 -26 -12 -107
-42 -180 -65 l-133 -43 -92 -85 c-51 -46 -142 -138 -203 -204 -61 -66 -124
-129 -140 -140 -59 -40 -154 -84 -373 -171 -123 -49 -251 -103 -284 -119 -38
-20 -68 -28 -82 -25 -20 5 -51 -26 -230 -229 l-206 -234 -81 -31 c-101 -39
-287 -92 -398 -114 -172 -33 -1589 -266 -1710 -281 -69 -8 -201 -29 -295 -46
-590 -106 -2140 -404 -2445 -470 -241 -53 -1141 -238 -2100 -434 -1068 -218
-1616 -357 -2085 -530 -182 -66 -749 -237 -1795 -540 -1941 -562 -2256 -657
-2800 -849 -289 -101 -691 -245 -895 -319 -396 -144 -450 -168 -1261 -567
-409 -202 -428 -210 -833 -352 -157 -55 -303 -109 -325 -120 -44 -22 -498
-305 -737 -459 -117 -74 -187 -130 -338 -268 -105 -95 -191 -177 -191 -182 0
-18 -159 -195 -390 -434 -319 -330 -386 -430 -486 -727 -69 -205 -76 -265 -41
-341 30 -66 124 -163 199 -206 45 -26 63 -31 122 -31 91 0 140 -24 206 -100
27 -32 50 -60 50 -62 0 -2 -39 0 -87 5 -49 5 -131 10 -184 11 l-95 1 -54 -45
c-110 -92 -142 -173 -122 -306 23 -144 78 -222 196 -272 33 -14 108 -50 166
-78 114 -57 141 -81 395 -359 205 -225 561 -525 786 -663 439 -270 651 -370
1104 -525 105 -36 456 -159 780 -275 845 -300 898 -318 1020 -351 247 -68 834
-188 1120 -230 184 -27 342 -43 865 -86 450 -37 648 -63 1325 -176 395 -66
582 -103 724 -144 241 -69 456 -103 831 -130 310 -22 309 -22 315 -48 3 -12
34 -161 70 -332 148 -697 190 -865 246 -977 21 -42 70 -147 109 -233 l70 -156
10 -130 c23 -288 72 -413 170 -439 70 -18 263 -42 295 -36 18 4 77 28 131 55
96 46 100 47 133 34 69 -28 118 0 176 100 37 64 58 77 128 77 82 0 122 21 202
105 58 60 77 74 110 80 88 14 99 24 133 128 53 158 38 249 -59 362 -83 96 -84
98 -65 145 9 22 16 58 16 79 0 36 -25 67 -464 567 -255 291 -461 532 -459 536
2 5 42 8 88 8 98 0 138 -13 320 -100 144 -70 217 -116 310 -198 97 -85 132
-100 299 -122 215 -29 406 -73 586 -136 137 -47 186 -73 256 -134 66 -58 153
-102 234 -120 86 -18 454 -32 523 -19 85 15 252 66 307 94 26 13 67 39 91 57
24 19 66 42 94 53 60 22 125 87 178 176 34 57 38 70 34 117 -3 37 -10 59 -27
77 -13 14 -94 62 -179 106 -86 44 -160 85 -165 90 -12 11 -18 11 509 -1 231
-5 546 -17 700 -26 238 -14 334 -14 640 -5 198 6 404 17 459 25 158 23 403 35
816 41 485 6 894 31 1600 100 140 14 392 36 560 50 663 55 1351 127 1590 165
69 11 163 32 210 45 212 62 536 127 1701 344 295 55 598 114 675 130 154 32
346 55 649 75 l200 14 905 -180 c1732 -343 1759 -347 1958 -349 59 0 143 -4
187 -8 44 -4 90 -4 103 0 32 12 28 51 -9 94 -18 20 -29 38 -26 42 23 22 419
29 736 13 168 -8 271 -4 364 16 l27 6 -20 28 c-11 15 -20 32 -20 38 0 5 33 12
74 15 41 3 94 14 118 25 50 22 96 72 104 112 5 20 19 33 59 53 29 14 70 40 90
58 36 32 37 34 33 95 -5 84 -57 185 -148 292 -69 79 -73 82 -114 82 -100 0
-100 0 -147 128 -24 63 -53 129 -64 146 -27 41 -81 76 -116 76 -34 0 -34 -2
-10 52 11 24 22 55 25 70 5 24 12 27 78 38 342 56 1716 295 2013 351 517 96
1389 312 1665 412 109 39 288 127 393 192 104 65 163 58 193 -21 40 -106 162
-184 616 -395 216 -100 986 -395 1898 -727 532 -193 632 -226 810 -266 235
-52 240 -52 351 -17 106 34 144 38 193 17 52 -22 203 -54 303 -66 124 -14 168
-4 208 47 16 21 71 79 121 129 105 103 117 131 129 276 4 49 16 102 28 128 31
70 36 228 8 319 -26 85 -26 99 -1 213 24 105 21 149 -18 248 -21 55 -24 79
-22 161 3 149 -77 552 -123 620 -12 18 -52 50 -89 73 -37 23 -79 50 -94 61
l-27 21 69 49 c163 116 207 180 183 267 -17 65 -77 147 -131 181 l-47 30 40
29 c63 46 81 97 73 206 -4 49 -4 110 0 135 6 39 10 45 36 51 16 3 46 20 65 38
50 46 65 109 72 301 6 181 4 187 -74 206 -65 17 -92 33 -174 101 -39 33 -77
60 -83 60 -53 1 -257 30 -272 38 -14 9 -15 11 -4 12 8 0 134 12 280 26 l265
27 135 57 c227 96 496 190 545 190 25 0 211 68 505 185 506 202 615 233 1121
319 365 63 383 62 934 -28 l260 -43 235 13 c1016 54 1354 45 2229 -62 444 -54
616 -85 1165 -209 417 -94 568 -117 846 -130 74 -4 342 -26 595 -51 1031 -98
1198 -108 1695 -101 388 6 607 20 827 52 145 22 476 92 519 110 19 8 65 47
102 87 37 39 105 113 152 162 l85 91 34 122 c39 142 38 176 -9 279 -52 114
-61 161 -85 439 -13 149 -31 355 -41 460 l-18 190 -31 30 c-18 16 -45 50 -61
74 -28 43 -29 50 -34 196 -5 147 -6 154 -38 216 -18 35 -64 107 -102 159 -64
87 -208 298 -224 328 -5 7 5 27 23 48 37 41 38 61 10 117 -31 62 -216 241
-350 340 -64 47 -126 99 -139 116 -36 52 -60 134 -60 211 0 39 -6 85 -14 103
-8 18 -67 84 -132 148 -114 111 -125 119 -268 193 -173 89 -218 120 -272 184
-21 26 -80 93 -131 149 -51 56 -104 120 -118 141 l-25 39 35 289 c19 159 37
303 40 320 5 29 -3 40 -97 139 l-102 107 29 22 c66 47 152 125 183 165 26 34
32 52 32 89 -1 26 -7 58 -15 72 -37 64 -3 129 128 243 96 85 97 88 97 332 0
195 -3 222 -46 503 -48 317 -41 294 -106 344 -17 12 -16 19 14 108 32 94 33
98 33 285 0 217 -6 242 -65 261 -40 13 -38 2 -25 170 7 96 7 104 -18 158 -30
64 -99 181 -193 328 l-63 97 -278 -125 -278 -125 64 63 c94 92 121 133 121
183 0 22 9 90 20 150 11 60 20 125 20 145 0 40 18 61 102 120 54 38 83 89 74
131 -7 36 -63 119 -147 219 -39 47 -79 109 -105 166 -48 101 -69 123 -151 154
-90 34 -184 46 -231 31 -34 -12 -53 -11 -135 4 l-95 18 -21 44 c-13 28 -27 43
-38 42 -10 -1 -46 -5 -80 -10z"/>
</g>
</svg>
