<?xml version="1.0" standalone="no"?>
<!DOCTYPE svg PUBLIC "-//W3C//DTD SVG 20010904//EN"
 "http://www.w3.org/TR/2001/REC-SVG-20010904/DTD/svg10.dtd">
<svg version="1.0" xmlns="http://www.w3.org/2000/svg"
 width="1536.000000pt" height="1475.000000pt" viewBox="0 0 1536.000000 1475.000000"
 preserveAspectRatio="xMidYMid meet">
<metadata>
Created by potrace 1.16, written by Peter Selinger 2001-2019
</metadata>
<g transform="translate(0.000000,1475.000000) scale(0.100000,-0.100000)"
fill="#000000" stroke="none">
<path d="M5763 14678 c-22 -18 -59 -49 -83 -68 -287 -229 -687 -627 -939 -932
-35 -43 -70 -78 -78 -78 -7 0 -18 12 -23 28 -6 15 -14 36 -19 47 -5 11 -28 66
-51 123 -26 63 -48 102 -57 102 -8 0 -39 -12 -69 -26 -62 -29 -62 -31 -16
-134 44 -98 112 -280 112 -299 0 -9 -30 -59 -67 -109 -132 -179 -309 -450
-407 -622 -81 -143 -257 -514 -316 -665 -81 -208 -83 -214 -115 -320 -15 -49
-31 -101 -36 -115 -10 -29 -62 -242 -77 -315 -102 -490 -109 -977 -20 -1420
11 -55 24 -118 28 -140 20 -95 113 -416 142 -485 5 -14 18 -50 28 -80 11 -30
31 -86 46 -125 14 -38 39 -104 54 -145 31 -84 66 -175 79 -205 5 -11 16 -40
26 -65 10 -25 21 -54 26 -65 4 -11 27 -69 49 -130 23 -60 46 -119 51 -130 5
-11 28 -72 50 -135 l41 -115 8 -225 8 -225 -60 -105 c-33 -58 -89 -165 -125
-237 -35 -73 -68 -133 -74 -133 -5 0 -26 7 -47 16 -167 71 -461 124 -687 124
-124 0 -485 -33 -645 -60 -30 -5 -100 -17 -155 -26 -55 -9 -145 -25 -200 -36
-55 -12 -120 -24 -145 -28 -79 -14 -321 -73 -470 -115 -25 -7 -72 -20 -105
-30 -99 -28 -106 -33 -99 -74 13 -73 26 -81 94 -60 82 24 173 49 290 78 47 12
101 26 120 31 54 15 158 37 370 80 25 4 88 16 140 24 676 114 1033 112 1383
-5 123 -41 123 -41 97 -120 -40 -117 -57 -190 -91 -384 -27 -158 -30 -520 -5
-665 32 -187 44 -236 92 -392 26 -83 29 -108 15 -108 -12 0 -215 -146 -266
-190 -230 -203 -402 -429 -524 -690 -61 -131 -61 -133 -7 -154 60 -23 76 -18
92 25 64 187 238 444 423 627 101 100 309 262 337 262 7 0 22 -18 32 -39 21
-43 22 -34 -23 -196 -27 -99 -46 -168 -54 -205 -4 -19 -18 -73 -30 -120 -33
-126 -52 -201 -61 -240 -18 -73 -42 -166 -51 -196 -5 -17 -9 -37 -9 -46 0 -9
-7 -38 -15 -64 -13 -43 -40 -150 -65 -254 -5 -19 -16 -62 -25 -95 -9 -33 -20
-76 -25 -95 -26 -114 -146 -506 -205 -670 -61 -171 -107 -297 -115 -315 -5
-11 -30 -72 -56 -135 -25 -63 -62 -148 -80 -188 -19 -41 -34 -76 -34 -78 0
-18 -250 -522 -279 -563 l-20 -28 -128 5 c-209 7 -299 -18 -598 -163 -202 -98
-230 -108 -340 -125 -74 -11 -232 2 -415 35 -364 65 -674 36 -928 -87 -149
-72 -346 -217 -335 -246 10 -27 165 -182 182 -182 8 0 35 17 61 39 79 67 214
143 313 176 193 64 375 70 672 20 231 -38 365 -48 475 -35 140 17 224 45 415
140 202 100 233 113 323 135 82 20 190 17 342 -9 257 -45 377 -58 460 -52 96
7 219 28 300 51 30 9 69 20 85 24 27 8 57 17 205 66 101 33 210 57 324 71 191
24 401 0 841 -96 22 -5 74 -16 115 -25 41 -9 102 -22 135 -30 33 -8 110 -26
170 -40 61 -14 126 -30 145 -35 19 -6 87 -23 150 -39 211 -55 349 -93 460
-128 235 -73 426 -138 485 -163 11 -5 83 -35 160 -66 150 -62 373 -173 520
-259 50 -29 106 -61 125 -72 19 -11 60 -34 90 -50 30 -17 82 -46 115 -65 63
-35 246 -126 305 -151 19 -8 51 -21 70 -30 83 -35 226 -79 330 -100 147 -31
239 -37 520 -37 314 -1 406 -9 563 -54 144 -41 174 -49 207 -56 19 -5 64 -16
100 -25 90 -23 261 -45 350 -45 166 0 388 41 616 115 60 19 118 40 129 45 11
6 49 21 85 34 36 13 137 52 225 86 183 72 339 128 475 172 52 16 113 36 135
44 22 7 81 24 130 39 50 14 104 29 120 35 31 9 286 73 430 107 l80 19 0 45
c-1 59 -33 201 -49 217 -13 13 -41 9 -186 -28 -104 -26 -161 -37 -164 -31 -2
3 11 24 29 46 18 22 116 138 217 259 439 523 517 622 607 771 50 83 141 268
141 287 0 8 4 18 9 23 11 12 53 151 74 245 28 120 39 237 38 396 0 230 -30
439 -93 669 -42 152 -51 196 -42 204 9 8 199 69 359 116 50 14 113 32 140 40
28 8 75 21 105 29 30 8 80 22 110 31 30 9 69 20 85 24 17 4 46 13 65 19 19 7
55 18 80 26 407 133 828 350 1153 595 48 36 87 72 87 79 0 17 -58 99 -75 106
-7 2 -70 -37 -141 -88 -133 -96 -241 -166 -354 -230 -58 -33 -324 -164 -375
-186 -53 -21 -102 -42 -120 -50 -89 -38 -311 -110 -510 -165 -326 -91 -504
-144 -602 -180 l-62 -23 -13 22 c-8 11 -22 48 -33 81 -11 33 -25 71 -32 85 -7
14 -13 31 -13 38 0 7 -4 20 -9 30 -8 15 -18 41 -51 127 -4 11 -15 40 -25 65
-19 50 -26 66 -48 125 -8 22 -26 69 -40 105 -14 36 -30 81 -37 100 -7 19 -19
49 -26 65 -7 17 -31 82 -54 145 -23 63 -45 124 -50 135 -19 49 -40 105 -64
173 -25 69 -49 136 -100 280 -39 109 -63 179 -182 531 -61 184 -118 337 -126
342 -21 12 -122 -26 -126 -48 -3 -18 100 -337 211 -653 30 -85 64 -184 76
-220 13 -36 26 -74 31 -85 8 -19 20 -51 86 -237 14 -40 32 -89 39 -108 7 -19
37 -98 65 -175 29 -77 58 -153 65 -170 7 -16 20 -50 28 -75 8 -25 21 -58 27
-75 7 -16 16 -39 20 -50 12 -32 42 -107 55 -140 7 -16 18 -46 25 -65 7 -19 18
-48 25 -65 7 -16 20 -50 29 -75 8 -25 29 -83 47 -130 52 -139 54 -133 -61
-185 -36 -17 -96 -48 -135 -69 -38 -22 -79 -44 -90 -51 -184 -102 -411 -286
-653 -530 -226 -228 -307 -321 -627 -720 -192 -239 -296 -368 -304 -375 -3 -3
-23 -26 -44 -52 -21 -26 -43 -53 -50 -60 -7 -7 -52 -58 -101 -113 -161 -181
-456 -476 -626 -625 -47 -41 -87 -77 -90 -80 -11 -12 -188 -158 -230 -190 -25
-19 -47 -37 -50 -41 -13 -16 -300 -226 -415 -304 -71 -48 -137 -93 -145 -101
-8 -7 -38 -24 -66 -38 -52 -26 -54 -26 -295 -26 -294 0 -390 11 -604 70 -126
35 -356 146 -643 311 -47 27 -87 49 -89 49 -2 0 -20 11 -41 23 -40 26 -140 82
-183 104 -49 25 -52 36 -23 89 15 27 30 54 34 59 4 6 22 37 40 70 18 33 41 74
50 90 9 17 32 57 50 90 18 33 41 74 50 90 57 102 83 150 121 221 23 43 57 106
74 139 18 33 63 119 100 190 37 72 81 143 98 159 18 15 129 92 247 170 413
272 614 425 1141 866 135 113 265 221 289 240 24 19 48 40 54 45 18 17 146
118 241 191 50 37 92 71 95 74 20 21 362 257 471 325 10 5 76 47 148 93 72 45
132 82 134 82 2 0 42 22 88 48 91 52 201 112 319 174 41 22 79 44 85 49 5 5
15 9 23 9 22 0 211 142 268 202 91 95 160 209 192 318 6 19 16 53 22 75 18 59
24 364 10 486 -20 182 -54 544 -70 739 -12 160 -32 334 -66 587 -9 66 -14 128
-11 136 4 10 29 16 89 20 244 18 529 58 723 103 129 29 140 32 200 49 33 9 74
21 90 25 34 8 240 77 270 90 11 4 56 23 100 40 178 72 355 157 361 175 5 11
-36 97 -57 119 -5 6 -42 -7 -92 -32 -46 -22 -105 -51 -133 -62 -27 -12 -62
-27 -79 -34 -398 -172 -876 -282 -1407 -322 l-87 -7 -11 29 c-6 15 -15 58 -20
94 -6 36 -17 103 -26 150 -9 47 -19 105 -24 130 -4 25 -16 83 -25 130 -9 47
-20 103 -25 125 -10 51 -28 139 -40 190 -5 22 -16 74 -25 115 -9 41 -20 91
-25 110 -5 19 -15 64 -24 100 -35 151 -68 289 -126 520 -34 135 -66 261 -70
280 -5 19 -16 62 -25 95 -9 33 -20 76 -25 95 -5 19 -16 62 -25 95 -9 33 -20
76 -24 95 -5 19 -16 61 -25 93 -9 31 -23 83 -32 115 -9 31 -20 73 -24 92 -5
19 -16 62 -25 95 -45 158 -56 206 -52 219 3 8 212 10 758 8 445 -2 848 1 984
8 531 25 582 28 1105 69 170 14 293 30 304 41 15 15 -2 40 -26 40 -13 0 -53
-5 -89 -10 -108 -16 -632 -57 -894 -70 -521 -26 -817 -32 -1463 -27 -636 4
-684 6 -702 22 -11 10 -20 24 -20 31 0 7 -6 33 -14 56 -7 24 -21 72 -31 108
-9 36 -21 76 -25 90 -4 14 -16 54 -25 90 -10 36 -28 99 -40 140 -13 41 -30
102 -40 135 -9 33 -20 71 -25 85 -4 14 -16 52 -25 85 -16 54 -53 177 -74 245
-5 14 -16 52 -26 85 -9 33 -21 71 -26 85 -4 14 -22 72 -39 130 -18 58 -35 116
-40 130 -5 14 -27 86 -51 160 -124 400 -359 1104 -372 1117 -9 9 -24 8 -65 -6
-29 -10 -58 -23 -63 -28 -7 -7 22 -107 84 -294 51 -156 113 -345 136 -419 24
-74 47 -144 51 -155 8 -17 56 -171 107 -340 8 -27 25 -81 38 -120 12 -38 32
-104 45 -145 12 -41 28 -93 35 -115 7 -22 21 -67 30 -100 10 -33 28 -94 41
-135 36 -115 102 -341 170 -580 9 -30 19 -66 24 -80 4 -14 15 -54 25 -90 9
-36 21 -75 26 -88 5 -13 9 -34 9 -48 l0 -25 -97 3 -97 3 -17 35 c-9 19 -24 51
-32 70 -83 193 -331 701 -364 746 -13 17 -16 17 -73 -11 -33 -17 -60 -36 -60
-43 0 -7 62 -140 139 -295 76 -155 145 -298 154 -317 8 -19 26 -60 40 -90 13
-30 27 -63 30 -72 6 -17 -19 -18 -386 -18 -570 0 -862 -18 -1197 -76 -201 -35
-317 -61 -450 -99 -30 -8 -73 -20 -95 -26 -98 -27 -293 -97 -394 -141 -24 -11
-64 -27 -90 -38 -52 -20 -188 -87 -304 -149 -81 -43 -97 -44 -97 -10 0 33 128
142 331 280 347 238 763 434 1124 529 17 4 64 17 105 28 68 18 149 36 285 62
28 5 88 14 135 20 46 5 90 16 96 22 9 9 10 32 6 73 l-7 60 -75 -3 c-108 -3
-318 -42 -515 -94 -133 -35 -248 -71 -259 -80 -6 -4 -18 -8 -28 -8 -9 0 -34
-7 -55 -16 -21 -9 -47 -20 -58 -24 -165 -64 -404 -176 -555 -261 -64 -36 -233
-140 -240 -149 -3 -3 -25 -18 -50 -34 -25 -16 -89 -63 -143 -105 -71 -54 -101
-72 -106 -62 -5 7 -11 54 -15 104 -17 242 -30 384 -66 732 -5 50 -16 144 -25
210 -31 230 -32 203 16 321 l44 106 142 69 c78 38 145 74 148 79 9 15 -23 80
-40 80 -7 0 -48 -16 -89 -35 -42 -19 -79 -35 -82 -35 -11 0 11 55 88 220 57
122 214 436 246 495 16 28 49 88 74 135 101 189 372 641 413 690 31 36 27 56
-15 84 -22 14 -46 26 -54 26 -17 0 -270 -402 -404 -642 -22 -39 -67 -122 -126
-230 -71 -134 -286 -570 -286 -582 0 -3 -16 -40 -36 -83 -20 -43 -43 -94 -51
-113 -27 -65 -46 -100 -54 -100 -8 0 -39 98 -39 124 0 8 -4 25 -9 38 -5 13
-16 50 -26 83 -105 376 -327 711 -617 930 -121 91 -135 97 -164 59 -27 -34
-40 -77 -24 -82 33 -11 187 -137 270 -221 180 -182 301 -384 389 -651 27 -82
33 -101 66 -222 8 -31 15 -74 15 -96 0 -37 -3 -42 -42 -62 -367 -191 -852
-481 -1156 -693 -53 -37 -105 -73 -116 -80 -43 -28 -123 -87 -213 -155 -69
-52 -99 -69 -104 -60 -3 7 -9 54 -12 103 -3 50 -13 151 -22 225 -9 74 -20 169
-25 210 -5 41 -16 118 -24 170 -8 52 -18 115 -21 140 -13 93 -78 437 -101 540
-8 36 -20 88 -25 115 -6 28 -15 66 -20 85 -5 19 -22 94 -40 165 -17 72 -34
141 -39 155 -4 14 -16 54 -25 90 -64 240 -178 602 -247 787 -18 49 -28 91 -25
105 6 22 28 51 130 173 290 346 593 645 929 918 59 49 108 94 108 101 0 18
-72 106 -87 106 -6 0 -29 -15 -50 -32z m-1101 -1558 c22 -63 43 -128 48 -145
4 -16 18 -59 29 -95 12 -36 28 -87 36 -115 8 -27 22 -72 31 -100 20 -63 65
-227 84 -305 4 -19 18 -73 29 -120 12 -47 29 -114 37 -150 9 -36 19 -81 24
-100 5 -19 11 -48 14 -65 3 -16 12 -61 21 -100 17 -79 41 -203 55 -285 5 -30
16 -98 25 -150 9 -52 21 -124 26 -160 29 -206 41 -296 49 -389 6 -57 12 -106
14 -110 2 -3 9 -82 16 -174 l12 -168 -162 -156 c-223 -216 -344 -362 -482
-580 -81 -128 -146 -255 -201 -389 -61 -150 -79 -205 -130 -394 -28 -103 -67
-313 -67 -359 0 -51 -12 -67 -34 -46 -9 9 -16 23 -16 30 0 8 -12 42 -26 77
-42 101 -50 121 -64 158 -7 19 -18 49 -25 65 -7 17 -36 93 -65 170 -28 77 -56
148 -61 157 -5 10 -9 23 -9 29 0 6 -6 25 -14 42 -16 35 -79 224 -119 357 -23
76 -60 232 -87 360 -38 186 -66 533 -56 709 14 247 22 326 66 586 23 140 130
532 169 620 5 11 26 65 46 120 21 55 50 128 66 163 16 35 29 66 29 69 0 11
155 320 200 400 28 47 50 87 50 89 0 6 157 259 202 327 114 169 173 248 186
245 8 -2 31 -52 54 -118z m2362 -1716 c15 -39 1 -90 -74 -279 -5 -11 -16 -42
-25 -70 -18 -53 -25 -72 -45 -120 -6 -16 -27 -75 -45 -130 -19 -55 -48 -138
-65 -185 -17 -47 -39 -110 -49 -140 -11 -30 -24 -66 -29 -80 -6 -14 -22 -58
-36 -97 -59 -165 -79 -221 -101 -278 -26 -66 -102 -258 -115 -290 -5 -11 -16
-38 -25 -60 -39 -93 -29 -83 -185 -168 -104 -55 -162 -88 -202 -114 -21 -12
-41 -23 -44 -23 -4 0 -22 -11 -40 -25 -18 -14 -35 -25 -38 -25 -6 0 -171 -108
-270 -177 -38 -26 -126 -92 -195 -145 -69 -54 -130 -98 -135 -98 -10 0 -5 49
18 180 17 93 23 143 46 360 6 61 10 277 9 515 0 226 -1 415 0 421 2 23 266
220 541 404 222 148 570 362 755 465 28 16 65 37 83 47 19 10 73 39 120 65 48
25 91 49 97 54 15 14 42 10 49 -7z m60 -416 c34 -293 86 -890 86 -984 0 -57
-2 -62 -36 -89 -20 -16 -77 -43 -127 -60 -85 -30 -156 -57 -234 -91 -17 -8
-34 -14 -37 -14 -3 0 -40 -16 -82 -35 -72 -33 -94 -41 -94 -30 0 4 14 41 31
80 22 51 148 384 169 445 4 14 27 77 50 140 23 63 50 142 61 175 11 33 24 69
29 80 4 11 16 43 25 70 9 28 28 80 41 118 13 37 36 100 50 140 14 39 27 78 30
85 2 6 10 12 18 12 10 0 16 -14 20 -42z m3225 -666 l53 -7 70 -170 c38 -93 73
-179 78 -190 9 -23 38 -100 50 -130 4 -11 15 -38 23 -60 46 -119 193 -552 224
-660 7 -27 18 -63 23 -80 28 -95 43 -146 56 -195 41 -149 67 -251 80 -305 8
-33 21 -85 29 -115 7 -30 18 -75 24 -100 45 -202 78 -360 91 -440 5 -30 17
-93 25 -140 9 -47 20 -110 24 -140 15 -101 32 -205 42 -254 6 -34 6 -52 -1
-56 -6 -4 -41 -12 -78 -19 -176 -32 -269 -56 -402 -103 -47 -17 -94 -33 -105
-36 -35 -9 -219 -107 -296 -157 -150 -96 -310 -234 -420 -361 -80 -92 -92
-107 -169 -214 -67 -92 -99 -140 -135 -202 -5 -9 -25 -43 -44 -75 -59 -99
-218 -411 -271 -528 -12 -27 -39 -86 -60 -130 -57 -119 -105 -226 -120 -265
-7 -19 -17 -39 -21 -45 -3 -5 -22 -46 -40 -90 -18 -44 -50 -113 -71 -153 -21
-40 -38 -79 -38 -86 0 -12 -52 -141 -109 -271 -30 -67 -42 -96 -52 -120 -4
-11 -17 -40 -27 -65 -11 -25 -44 -101 -72 -170 -29 -69 -68 -158 -86 -198 -19
-41 -34 -75 -34 -77 0 -3 -11 -29 -25 -60 -14 -30 -36 -80 -50 -110 -14 -31
-25 -57 -25 -60 0 -2 -15 -36 -34 -77 -18 -40 -44 -95 -56 -123 -31 -68 -124
-266 -235 -500 -94 -197 -291 -591 -307 -614 -14 -20 -140 -102 -249 -163 -24
-14 -71 -40 -104 -58 -33 -18 -76 -42 -95 -53 -107 -62 -587 -298 -726 -358
-27 -11 -65 -27 -84 -36 -19 -8 -44 -19 -55 -23 -147 -61 -199 -82 -237 -96
-45 -16 -47 -24 42 171 15 33 38 83 50 110 54 120 84 185 120 260 21 44 48
103 60 130 34 74 69 151 105 230 62 136 60 111 46 487 -6 189 -16 397 -21 463
-32 377 -46 525 -65 675 -28 214 -33 252 -49 355 -8 55 -18 118 -21 140 -6 40
-28 163 -45 260 -35 185 -42 224 -52 259 -5 22 -12 72 -15 111 -6 70 -5 74 31
131 20 33 53 77 74 100 20 23 105 115 187 206 415 456 641 750 897 1168 52 85
117 196 143 245 54 99 205 401 205 409 0 2 16 40 36 83 20 43 56 130 80 193
24 63 49 124 54 135 5 11 23 61 39 110 34 106 32 113 -50 134 -48 13 -53 12
-66 -5 -7 -10 -13 -22 -13 -28 0 -13 -60 -179 -91 -251 -5 -11 -22 -54 -38
-95 -16 -41 -41 -102 -56 -135 -14 -33 -34 -76 -42 -95 -22 -49 -156 -317
-180 -360 -11 -19 -35 -62 -53 -95 -45 -82 -215 -353 -281 -449 -119 -172
-360 -483 -469 -605 -31 -35 -49 -37 -31 -4 9 16 94 228 126 313 37 98 97 278
116 345 4 17 15 55 24 85 9 30 20 71 25 90 4 19 16 69 27 110 11 41 28 113 37
160 10 47 22 103 26 125 5 22 16 81 25 130 98 572 131 1104 119 1925 l-6 435
34 19 c119 67 333 171 448 218 204 85 288 114 495 172 319 90 701 149 1065
166 200 9 879 10 949 2z m417 -27 c7 -9 18 -38 23 -64 6 -25 18 -71 27 -101 9
-30 19 -68 24 -85 4 -16 15 -57 25 -90 17 -63 26 -94 70 -260 71 -268 120
-457 145 -555 11 -47 25 -101 30 -120 5 -19 16 -62 24 -95 9 -33 25 -98 36
-145 21 -84 45 -182 60 -250 8 -38 45 -202 60 -265 15 -64 37 -164 55 -250 9
-44 20 -98 25 -120 5 -22 16 -80 25 -130 9 -49 20 -108 25 -130 5 -22 16 -85
25 -140 9 -55 21 -118 25 -139 11 -50 7 -56 -34 -56 -37 0 -36 -2 -61 165 -3
22 -13 81 -21 130 -8 50 -19 115 -24 145 -4 30 -13 80 -19 110 -6 30 -16 78
-21 105 -19 101 -42 211 -50 245 -5 19 -16 69 -25 110 -9 41 -20 91 -25 110
-5 19 -18 73 -30 120 -20 83 -56 223 -85 328 -8 28 -21 76 -29 105 -8 28 -22
75 -30 102 -9 28 -23 73 -31 100 -23 76 -145 447 -155 470 -4 11 -20 54 -35
95 -25 72 -44 121 -70 185 -7 17 -18 46 -25 65 -6 19 -16 44 -21 55 -74 176
-106 265 -96 269 7 3 48 4 91 2 61 -2 82 -7 92 -21z m-5500 -152 c9 -124 -2
-650 -16 -774 -28 -240 -56 -395 -107 -596 -15 -60 -20 -66 -157 -201 -213
-210 -292 -294 -415 -442 -62 -74 -121 -145 -131 -157 -10 -12 -26 -33 -35
-47 -29 -44 -29 -44 -89 140 -21 67 -26 100 -26 185 0 120 37 393 75 549 9 36
20 81 24 100 10 42 77 246 91 275 5 11 16 38 25 60 41 98 124 259 182 354 58
93 137 208 153 221 3 3 21 25 40 50 71 92 351 380 370 380 4 0 11 -44 16 -97z
m1673 -460 c-7 -10 -18 -22 -24 -28 -33 -31 -233 -280 -277 -345 -10 -14 -36
-52 -59 -85 -42 -60 -108 -164 -139 -220 -131 -233 -233 -454 -291 -628 -11
-34 -24 -71 -29 -82 -5 -11 -16 -45 -25 -75 -8 -30 -20 -68 -25 -85 -30 -103
-71 -287 -100 -450 -23 -136 -33 -275 -39 -550 -5 -251 -8 -290 -21 -286 -8 1
-39 9 -68 17 -130 34 -248 24 -372 -33 -165 -76 -303 -219 -560 -581 -63 -89
-120 -162 -127 -162 -49 -1 -45 287 8 560 9 50 20 94 50 205 16 58 59 184 76
225 9 19 22 51 30 70 36 83 90 189 125 248 21 34 38 64 38 66 0 21 221 318
302 406 13 14 50 57 83 95 68 79 64 75 125 141 25 27 72 81 105 119 33 39 62
72 65 75 19 16 147 180 211 270 141 196 272 418 391 660 63 128 128 269 128
277 0 7 43 42 52 43 4 0 31 11 60 25 112 53 284 124 302 124 16 1 17 -1 5 -16z
m296 -270 c9 -280 0 -953 -15 -1150 -32 -411 -80 -784 -130 -1008 -4 -22 -16
-76 -26 -120 -9 -44 -30 -132 -46 -195 -17 -63 -33 -128 -37 -145 -4 -16 -13
-46 -19 -65 -7 -19 -30 -91 -52 -160 -22 -69 -44 -134 -49 -145 -5 -11 -32
-81 -61 -155 -69 -174 -93 -228 -201 -446 -50 -99 -99 -185 -108 -191 -17 -11
-18 -3 -24 115 -3 70 -11 152 -17 182 -6 30 -18 89 -27 130 -8 41 -19 89 -24
105 -34 117 -41 142 -49 160 -4 11 -16 40 -25 65 -10 25 -24 61 -33 80 -22 52
-96 164 -140 213 -66 71 -65 69 -70 342 -5 304 12 503 69 785 35 178 102 419
149 535 4 11 15 40 25 65 61 157 175 397 232 488 18 29 33 55 33 58 0 9 144
226 207 312 70 96 148 188 191 227 44 39 214 155 228 155 8 0 14 -71 19 -237z
m-905 -8 c0 -18 -146 -303 -225 -440 -120 -208 -298 -454 -472 -651 -54 -61
-159 -181 -234 -265 -110 -125 -198 -231 -277 -334 -23 -31 -125 -188 -152
-235 -44 -77 -170 -336 -170 -349 0 -6 -4 -19 -9 -29 -9 -18 -45 -98 -55 -122
-7 -17 -3 22 12 120 24 159 119 479 196 665 7 17 19 46 26 65 6 19 16 44 20
55 5 11 23 56 40 100 18 44 35 89 40 100 8 22 38 99 50 130 4 11 15 38 23 60
40 102 66 180 133 390 9 28 24 57 34 65 10 8 53 44 96 78 44 35 89 72 101 82
125 105 487 347 698 465 39 22 79 45 90 51 28 17 35 16 35 -1z m-1290 -968
c-7 -18 -16 -41 -20 -52 -4 -11 -14 -38 -23 -60 -27 -73 -65 -169 -95 -245
-69 -170 -186 -485 -203 -545 -4 -16 -15 -52 -23 -80 -70 -237 -103 -426 -112
-648 -4 -92 -11 -170 -16 -173 -12 -7 -41 23 -61 63 -13 24 -14 42 -7 94 13
87 12 408 0 527 -12 110 -36 266 -56 361 -15 75 -12 85 52 171 138 188 564
656 572 630 2 -6 -1 -25 -8 -43z m-711 -1187 c12 -74 13 -163 1 -200 -5 -16
-8 14 -9 83 -1 60 -5 116 -11 126 -14 26 -24 174 -14 207 6 23 9 10 15 -61 4
-49 12 -119 18 -155z m-131 30 c20 -168 26 -310 13 -310 -21 0 -181 105 -181
119 0 26 141 304 149 295 5 -5 13 -52 19 -104z m7314 -200 c4 -30 14 -111 23
-180 20 -148 36 -303 65 -625 31 -347 42 -458 52 -530 6 -44 12 -163 12 -265
0 -148 -3 -199 -18 -255 -19 -72 -64 -175 -77 -175 -3 0 -9 143 -12 318 -3
174 -13 418 -21 542 -9 124 -20 284 -25 355 -14 202 -42 485 -66 675 -8 63
-15 134 -15 158 l0 43 38 -3 c37 -3 37 -3 44 -58z m-244 23 c5 -10 12 -47 15
-83 3 -36 13 -128 22 -205 9 -77 20 -185 25 -240 24 -274 41 -496 50 -650 5
-93 14 -240 20 -325 23 -367 11 -561 -42 -680 -62 -140 -83 -160 -273 -260
-96 -51 -156 -83 -255 -138 -223 -124 -641 -396 -861 -562 -105 -78 -243 -189
-507 -404 -26 -21 -72 -60 -102 -86 -30 -26 -82 -69 -115 -95 -33 -27 -62 -51
-65 -55 -8 -9 -277 -230 -340 -278 -319 -247 -675 -502 -700 -502 -19 0 -10
24 64 174 41 83 100 205 131 271 32 66 76 161 100 210 23 50 53 113 65 140 13
28 33 73 45 100 13 28 44 97 70 155 26 58 58 130 72 160 14 30 33 76 43 101
10 26 28 66 39 90 45 100 72 162 130 302 34 81 71 169 82 195 12 26 25 56 29
67 5 11 20 45 33 75 13 30 46 107 72 170 27 63 60 135 73 160 67 124 633 936
721 1035 131 145 252 235 405 300 72 31 75 36 50 102 -20 51 -25 51 -154 -10
-117 -55 -206 -116 -298 -206 -100 -98 -118 -119 -236 -281 -54 -74 -102 -136
-107 -138 -5 -2 -9 -10 -9 -18 0 -9 -4 -13 -9 -9 -17 10 150 323 277 520 141
218 337 434 514 564 53 39 99 71 102 71 3 0 29 15 58 33 123 78 364 172 528
206 227 47 226 47 238 24z m-7190 -207 c37 -25 88 -64 114 -88 l47 -43 11
-128 c19 -244 6 -419 -50 -627 -5 -19 -19 -73 -30 -120 -12 -47 -33 -128 -47
-180 -13 -52 -30 -115 -36 -140 -15 -55 -25 -71 -59 -93 -45 -28 -55 -22 -76
46 -80 254 -97 373 -97 667 0 252 9 347 47 505 11 44 23 96 28 115 4 19 13 51
20 70 6 19 13 41 16 48 7 23 44 12 112 -32z m1774 -166 c37 -12 73 -30 81 -39
8 -9 22 -68 31 -131 24 -163 38 -221 89 -375 11 -33 23 -73 27 -90 4 -16 15
-56 24 -87 9 -32 23 -84 32 -115 56 -199 124 -478 124 -505 0 -20 -20 -49 -77
-110 -134 -143 -288 -311 -329 -358 -21 -24 -47 -54 -58 -65 -118 -127 -437
-512 -562 -679 -32 -43 -73 -98 -91 -121 -74 -99 -284 -411 -338 -503 -81
-138 -99 -161 -119 -162 -10 0 0 499 13 635 6 55 17 150 26 210 8 61 20 139
25 175 5 36 16 117 25 180 47 322 62 587 45 802 -7 95 -15 246 -17 334 l-5
162 59 77 c32 43 114 155 183 250 155 213 178 242 264 333 138 144 279 215
411 208 39 -2 100 -14 137 -26z m-1373 -252 c79 -127 103 -204 122 -403 6 -60
13 -129 16 -152 l5 -41 -93 -77 c-93 -78 -220 -165 -240 -165 -10 0 -7 35 11
115 30 137 43 196 55 245 7 30 18 82 25 115 6 33 18 89 25 125 7 36 19 99 25
140 21 135 23 139 49 98z m1720 -118 c35 -81 80 -230 100 -325 27 -135 31
-160 30 -203 l-1 -47 -12 45 c-7 25 -15 52 -18 60 -3 8 -13 44 -23 80 -9 36
-21 76 -25 90 -5 14 -16 52 -26 85 -9 33 -26 87 -37 120 -28 86 -47 163 -47
188 0 20 2 19 18 -8 10 -16 28 -55 41 -85z m-1547 -738 c16 -170 21 -582 9
-702 -12 -117 -35 -296 -51 -405 -5 -33 -16 -112 -25 -175 -9 -63 -20 -142
-25 -175 -5 -33 -17 -170 -26 -305 -16 -233 -16 -258 1 -497 l17 -252 -24 -48
c-33 -64 -124 -235 -158 -298 -15 -27 -42 -76 -59 -109 -203 -375 -463 -696
-727 -898 -102 -78 -162 -93 -354 -84 -194 8 -240 15 -240 34 0 8 49 115 109
236 100 203 136 280 178 376 8 19 18 42 23 51 4 8 22 51 40 95 17 43 36 88 41
99 54 122 229 621 283 810 10 33 21 71 26 85 4 14 16 54 25 90 9 36 21 76 25
90 4 14 15 54 25 90 9 36 20 79 25 95 4 17 38 152 74 300 37 149 74 297 82
330 9 33 19 76 24 95 7 31 15 62 51 200 16 64 38 146 79 295 25 90 45 151 52
160 4 5 8 19 8 31 0 12 7 35 15 50 8 16 15 39 15 51 0 12 5 25 10 28 6 3 10
17 10 31 0 24 53 84 73 84 5 0 23 11 41 25 18 14 35 25 39 25 9 0 157 102 216
148 29 24 56 40 59 37 3 -3 10 -45 14 -93z m1668 -493 c6 -23 16 -65 21 -93 5
-28 16 -87 24 -131 26 -133 35 -186 51 -280 29 -175 61 -401 74 -520 6 -49 12
-101 15 -115 6 -28 19 -165 41 -430 8 -96 20 -339 28 -540 14 -397 16 -374
-41 -500 -17 -36 -41 -87 -53 -115 -12 -27 -42 -90 -65 -140 -24 -49 -53 -112
-65 -140 -13 -27 -35 -77 -50 -110 -15 -33 -38 -82 -50 -110 -12 -27 -41 -88
-62 -135 -22 -47 -53 -113 -69 -148 -16 -34 -35 -65 -42 -68 -15 -5 -40 0
-212 46 -66 18 -136 36 -155 40 -19 4 -64 15 -100 25 -36 9 -83 20 -105 24
-22 5 -78 17 -125 29 -47 11 -119 28 -160 38 -41 9 -81 21 -88 27 -40 32 -206
425 -275 652 -49 164 -76 273 -116 475 -32 163 -29 186 51 318 21 34 38 65 38
67 0 3 11 22 24 43 13 20 66 105 117 187 177 284 405 596 683 930 225 271 627
715 647 715 5 0 13 -19 19 -41z m6727 -1424 c91 -336 123 -532 123 -759 0
-339 -93 -639 -290 -936 -39 -58 -159 -218 -185 -246 -5 -6 -26 -30 -45 -54
-43 -54 -93 -113 -101 -120 -10 -9 -414 -494 -449 -540 -19 -25 -37 -47 -40
-50 -3 -3 -27 -32 -52 -65 -58 -76 -73 -88 -128 -105 -122 -36 -361 -114 -460
-150 -47 -17 -105 -38 -130 -47 -25 -8 -79 -28 -120 -45 -41 -16 -84 -33 -95
-38 -22 -8 -99 -38 -130 -50 -11 -4 -38 -15 -60 -23 -120 -47 -267 -94 -390
-126 -66 -17 -245 -41 -305 -41 -58 0 -266 26 -281 35 -4 3 -27 9 -51 15 -24
5 -59 13 -78 18 -19 5 -88 24 -153 41 -65 18 -130 37 -145 42 l-26 10 33 20
c65 39 399 286 527 389 400 322 752 663 1085 1050 64 75 158 190 404 495 122
152 313 384 325 395 3 3 36 41 75 85 92 106 312 326 400 401 39 32 72 62 75
65 15 17 218 163 290 209 120 76 321 180 344 177 15 -1 23 -16 33 -52z m-8439
-917 c6 -24 18 -77 27 -118 10 -41 21 -88 26 -105 4 -16 16 -57 25 -90 48
-175 150 -451 220 -595 12 -25 20 -49 17 -54 -3 -4 -20 -5 -37 -2 -103 22
-270 45 -393 57 -124 11 -159 10 -285 -4 -135 -16 -241 -36 -280 -52 -28 -11
-21 6 17 50 95 107 187 217 237 285 46 63 208 315 208 324 0 2 22 42 49 89 28
47 71 127 96 176 26 50 50 89 54 86 5 -2 13 -24 19 -47z m3082 -733 c0 -8 -11
-34 -23 -57 -13 -24 -46 -83 -72 -133 -26 -49 -69 -128 -95 -175 -26 -47 -63
-116 -84 -153 -115 -212 -218 -387 -226 -387 -5 0 -41 15 -82 34 -40 18 -109
48 -153 66 -44 18 -93 38 -110 45 -16 7 -50 20 -75 29 -25 8 -83 29 -130 46
-47 17 -113 40 -147 51 -83 27 -82 37 7 74 25 10 68 29 97 42 28 12 54 23 57
23 3 0 44 18 91 40 47 22 88 40 90 40 5 0 261 123 390 187 117 59 214 110 360
192 100 56 105 57 105 36z"/>
</g>
</svg>
